<?xml version="1.0"?>
<svg width="640" height="480" xmlns="http://www.w3.org/2000/svg" xmlns:svg="http://www.w3.org/2000/svg">
 <!-- Created with SVG-edit - https://github.com/SVG-Edit/svgedit-->

 <g class="layer">
  <title>Layer 1</title>
  <rect fill="#ff00ff" id="svg_11" stroke="#000000" x="69" y="115.27"/>
  <rect fill="#ffaaff" height="184" id="svg_18" stroke="#000000" width="435" x="47" y="93.27"/>
  <polyline fill="none" id="svg_20" opacity="0.5" points="735,451.265625 " stroke="#000000" stroke-linecap="round"/>
  <line fill="none" id="svg_23" stroke="#000000" transform="matrix(1 0 0 1 0 0)" x1="107" x2="165" y1="149.27" y2="151.27"/>
  <line fill="none" id="svg_24" stroke="#000000" x1="131" x2="134" y1="148.27" y2="203.27"/>
  <line fill="none" id="svg_25" stroke="#000000" x1="114" x2="174" y1="201.27" y2="206.27"/>
  <line fill="none" id="svg_26" stroke="#000000" transform="matrix(1 0 0 1 0 0)" x1="178" x2="181" y1="188.27" y2="215.27"/>
  <line fill="none" id="svg_27" stroke="#000000" x1="176" x2="194" y1="183.27" y2="199.27"/>
  <line fill="none" id="svg_28" stroke="#000000" x1="194" x2="174" y1="197.27" y2="198.27"/>
  <line fill="none" id="svg_29" stroke="#000000" x1="178" x2="202" y1="196.27" y2="214.27"/>
  <line fill="none" id="svg_30" stroke="#000000" x1="209" x2="213" y1="187.27" y2="212.27"/>
  <ellipse cx="207" cy="174.27" fill="#ffaaff" id="svg_31" rx="7" ry="0" stroke="#000000"/>
  <line fill="none" id="svg_33" stroke="#000000" x1="236" x2="237" y1="171.27" y2="212.27"/>
  <path d="m237,170.27c0.61,0.57 1.39,0.9 2.29,1c0.89,0.1 1.64,0.63 2.54,0.91c0.75,0.24 1.58,0.5 2.09,1.28c0.47,0.73 1.25,0.8 2.08,0.8c0.98,0 1.8,-0.02 2.7,0c0.94,0.02 1.78,0.3 2.47,0.57c0.93,0.36 1.98,0.12 2.8,0.44c0.79,0.31 1.45,0.72 2.31,0.99c0.78,0.24 0.89,1.32 1.63,1.91c0.7,0.56 1.55,0.75 2.3,1.31c0.61,0.45 1.54,0.84 1.83,1.54c0.36,0.87 0.62,1.58 0.92,2.61c0.27,0.94 0.5,1.66 1.03,2.46c0.46,0.7 1.14,1.47 1.48,2.17c0.4,0.81 0.45,1.66 0.8,2.57c0.25,0.63 0.69,1.67 0.72,2.51c0.03,0.92 -0.37,1.92 0.09,2.63c0.47,0.74 0.91,1.28 0.91,2.2c0,0.92 0,1.73 0,2.6c0,0.96 0.22,1.86 0,2.76c-0.18,0.73 -0.99,1.22 -1,2.15c-0.01,0.86 -0.49,1.44 -1,1.92c-0.59,0.54 -1.04,1.05 -1.57,1.67c-0.48,0.56 -0.85,1.56 -1.59,1.97c-0.7,0.39 -1.13,0.87 -1.78,1.35c-0.68,0.51 -1.45,0.51 -2.34,0.65c-0.74,0.11 -1.07,0.97 -2,1c-0.88,0.03 -1.72,0 -2.66,0c-0.89,0 -1.7,0 -2.57,0c-0.96,0 -1.84,0 -2.68,0c-0.97,0 -1.82,0 -2.65,0c-0.98,0 -1.8,0 -2.72,0c-0.85,0 -1.79,0.01 -2.43,-0.5c-0.59,-0.47 -1,-1.07 -1,-1.94c0,-0.86 0.45,-2.06 -0.17,-2.56c-0.69,-0.56 -1.78,0 -2.67,0l-0.81,0" fill="none" id="svg_34" stroke="#000000"/>
  <line fill="none" id="svg_35" stroke="#000000" x1="284" x2="285" y1="183.27" y2="215.27"/>
  <line fill="none" id="svg_37" stroke="#000000" x1="309" x2="327" y1="204.27" y2="165.27"/>
  <line fill="none" id="svg_38" stroke="#000000" x1="328" x2="339" y1="168.27" y2="215.27"/>
  <line fill="none" id="svg_39" stroke="#000000" x1="315" x2="340" y1="186.27" y2="190.27"/>
  <line fill="none" id="svg_40" stroke="#000000" x1="361" x2="364" y1="166.27" y2="211.27"/>
  <line fill="none" id="svg_41" stroke="#000000" x1="362" x2="389" y1="168.27" y2="206.27"/>
  <line fill="none" id="svg_42" stroke="#000000" x1="387" x2="385" y1="204.27" y2="152.27"/>
  <polygon cx="442" cy="158.27" fill="#ffaaff" id="svg_43" orient="point" point="5" points="282.5,154.13055419921875 284.84381103515625,161.9864959716797 293.8770446777344,161.5632781982422 286.2923583984375,165.99530029296875 289.5314025878906,173.5896759033203 282.5,168.47286987304688 275.4685974121094,173.5896759033203 278.7076416015625,165.99530029296875 271.1229553222656,161.5632781982422 280.15618896484375,161.9864959716797 282.5,154.13055419921875 284.84381103515625,161.9864959716797 " r="46.14" r2="15.38" radialshift="0" shape="star" starRadiusMultiplier="3" stroke="#000000" stroke-width="NaN"/>
  <polygon cx="413" cy="117.27" fill="#ffaaff" id="svg_44" orient="point" point="5" points="206,157.47108459472656 208.31088256835938,166.0849609375 217.21728515625,165.62091064453125 209.73910522460938,170.48052978515625 212.93264770507812,178.80760955810547 206,173.19713592529297 199.06735229492188,178.80760955810547 202.26089477539062,170.48052978515625 194.78271484375,165.62091064453125 203.68911743164062,166.0849609375 206,157.47108459472656 208.31088256835938,166.0849609375 " r="11.79" r2="3.93" radialshift="0" shape="star" starRadiusMultiplier="3" stroke="#000000" stroke-width="NaN"/>
 </g>
</svg>